<?xml version="1.0" encoding="UTF-8"?>
<svg id="Layer_2" data-name="Layer 2" xmlns="http://www.w3.org/2000/svg" viewBox="0 0 85.31 68">
  <defs>
    <style>
      .cls-1 {
        fill: #2671eb;
        stroke-width: 0px;
      }
    </style>
  </defs>
  <g id="Layer_1-2" data-name="Layer 1">
    <path class="cls-1" d="M25.43,44.9L43,0h7.86v68h-8.34V19.48l.41,2.85-14.6,36.67h-5.79L7.93,23.22l.41-3.74v48.52H0V0h7.86l17.57,44.9Z"/>
    <path class="cls-1" d="M43.36,68V0h8.34v68h-8.34ZM47.52,9V0h33.35v9h-33.35ZM47.52,68v-9h19.88c2.99,0,5.31-.99,6.97-2.98,1.65-1.99,2.48-4.81,2.48-8.47s-.83-6.54-2.48-8.54c-1.65-2-3.98-3.01-6.97-3.01h-19.88v-9h19.34c3.91,0,7.24.81,9.98,2.43,2.74,1.62,4.84,3.95,6.29,7,1.45,3.05,2.17,6.76,2.17,11.12s-.72,8.03-2.17,11.07c-1.45,3.05-3.55,5.37-6.29,6.97s-6.07,2.4-9.98,2.4h-19.34Z"/>
  </g>
</svg>