<?xml version="1.0" encoding="UTF-8"?>
<svg id="Layer_2" data-name="Layer 2" xmlns="http://www.w3.org/2000/svg" viewBox="0 0 85.31 68">
  <defs>
    <style>
      .cls-1 {
        fill: #2671eb;
        stroke-width: 0px;
      }
    </style>
  </defs>
  <g id="Layer_1-2" data-name="Layer 1">
    <path class="cls-1" d="M25.43,44.9L43,0h7.86v68h-8.34V19.48l.41,2.85-14.6,36.67h-5.79L7.93,23.22l.41-3.74v48.52H0V0h7.86l17.57,44.9Z"/>
    <path class="cls-1" d="M45.29,68V0h7.5v68h-7.5ZM50.29,68v-9h15.21c4.17,0,7.12-.98,8.86-2.93,1.74-1.96,2.61-4.53,2.61-7.71v-.14c0-3.41-.74-6.13-2.22-8.16-1.48-2.03-3.92-3.05-7.32-3.05h-17.14v-9h17.34c2.94,0,5.16-.84,6.66-2.51,1.5-1.67,2.25-4.11,2.25-7.33,0-3.4-.83-5.95-2.5-7.63-1.67-1.69-4.17-2.53-7.5-2.53h-16.25V0h17.68C73.57,0,77.74,1.67,80.47,5c2.73,3.34,4.1,7.81,4.1,13.42,0,3.4-.83,6.51-2.5,9.33-1.67,2.82-4.28,4.62-7.85,5.4,3.51.62,6.24,2.48,8.18,5.57,1.94,3.09,2.91,6.63,2.91,10.62v.14c0,5.55-1.5,10.02-4.49,13.42-2.99,3.4-7.05,5.1-12.18,5.1h-18.35Z"/>
  </g>
</svg>