<?xml version="1.0" encoding="UTF-8"?>
<svg id="Layer_2" data-name="Layer 2" xmlns="http://www.w3.org/2000/svg" viewBox="0 0 102.32 68">
  <defs>
    <style>
      .cls-1 {
        fill: #203fd9;
        stroke-width: 0px;
      }
    </style>
  </defs>
  <g id="Layer_1-2" data-name="Layer 1">
    <path class="cls-1" d="M30.5,44.9L51.57,0h9.43v68h-10V19.48l.49,2.85-17.52,36.67h-6.95L9.51,23.22l.49-3.74v48.52H0V0h9.43l21.07,44.9Z"/>
    <path class="cls-1" d="M54.32,68V0h9v68h-9ZM60.32,68v-9h18.25c5,0,8.54-.98,10.63-2.93,2.08-1.96,3.13-4.53,3.13-7.71v-.14c0-3.41-.89-6.13-2.66-8.16-1.78-2.03-4.7-3.05-8.78-3.05h-20.56v-9h20.8c3.53,0,6.19-.84,7.99-2.51,1.8-1.67,2.69-4.11,2.69-7.33,0-3.4-1-5.95-3-7.63-2-1.69-5-2.53-8.99-2.53h-19.48V0h21.21C88.24,0,93.23,1.67,96.51,5c3.28,3.34,4.92,7.81,4.92,13.42,0,3.4-1,6.51-3,9.33-2,2.82-5.13,4.62-9.41,5.4,4.21.62,7.48,2.48,9.81,5.57,2.32,3.09,3.49,6.63,3.49,10.62v.14c0,5.55-1.8,10.02-5.38,13.42-3.59,3.4-8.46,5.1-14.61,5.1h-22.01Z"/>
  </g>
</svg>