<?xml version="1.0" encoding="UTF-8"?>
<svg id="Layer_1" data-name="Layer 1" xmlns="http://www.w3.org/2000/svg" viewBox="0 0 154.92 155.16">
  <path d="M72.75,155.03c-24.68-1.81-46.25-14.22-59.68-34.37C4.81,108.25.47,94.47.03,79.26c-.25-8.6,1.16-17.67,4.08-26.46,3.94-11.85,10.25-21.92,19.35-30.85,6.12-5.99,11.97-10.16,19.76-14.04,6.52-3.25,11.97-5.1,19.51-6.59,4.54-.9,7.42-1.18,13.8-1.28,5.85-.11,7.82,0,12.3.65,26.07,3.81,48.36,20.69,59.26,44.86,3.41,7.54,5.54,15.49,6.52,24.4.46,4.15.4,12.08-.11,16.35-1.83,15.49-7.72,29.21-17.68,41.31-1.99,2.43-7.73,8.07-10.28,10.13-10.97,8.82-23.38,14.36-36.97,16.51-4.71.76-12.39,1.11-16.82.79h0ZM59.21,122.44c4.04-.67,7.61-1.97,11.09-4.06,2.29-1.37,3.23-2.13,5.8-4.61,1.21-1.2,2.27-2.16,2.36-2.16.07,0,.84.69,1.72,1.51,5.04,4.8,11.39,7.89,18.33,8.95,2.3.35,7.4.35,9.37,0,3.57-.63,6.22-1.51,9.67-3.25,4.94-2.48,8.89-6.08,12.01-10.92l1.02-1.56-.4-.23c-1.48-.91-3.48-2.11-6.45-3.85-4.94-2.9-5.64-3.3-5.71-3.3-.04,0-.56.65-1.2,1.46-2.67,3.43-5.85,5.55-9.93,6.66-1.86.51-5.34.54-7.33.07-5.34-1.25-9.84-4.75-12.2-9.51-1.25-2.48-1.62-4.03-1.72-7.14-.07-2-.04-2.9.19-4.04.86-4.25,3.43-8.26,7.01-10.93,1.69-1.25,2.21-1.53,4.17-2.29,2.58-.97,3.3-1.09,6.42-1.09,2.78,0,2.83.02,4.71.67,3.3,1.13,5.91,2.94,8.38,5.82.81.93,1.48,1.69,1.49,1.69.05,0,5.68-3.25,8.96-5.19,1.46-.84,2.74-1.63,2.88-1.78.21-.18.09-.46-.69-1.78-2.09-3.52-4.73-6.42-7.89-8.65-12.23-8.7-29.5-7.44-40.34,2.95-1.04,1-3.87,4.15-4.43,4.92-.04.04-.7-.53-1.51-1.25-4.1-3.64-7-4.96-17.81-8.14-7-2.06-8.1-2.53-9.6-4.08-1.3-1.34-1.65-2.16-1.63-3.83,0-1.76.4-2.71,1.69-4.06.97-1.04,1.83-1.6,3.13-2.13.72-.28,1.76-.32,11.51-.4l10.72-.09.05-7.44.04-7.42h-11.02c-6.08,0-11.58.09-12.27.18-2.9.39-6.64,1.88-9.56,3.83-1.86,1.23-4.75,4.08-5.87,5.78-7.24,10.95-3.6,24.36,8.23,30.25,2.02,1,3.36,1.44,9.83,3.3,8.42,2.41,10.51,3.34,13.06,5.75,1.44,1.39,2.04,2.16,2.83,3.74,2.06,4.06,2.07,9.54.05,13.87-2.09,4.46-5.5,7.37-10.3,8.74-1.97.54-5.5.54-7.56,0-6.43-1.76-10.74-7-11.13-13.48l-.12-1.93-7.54-.05-7.54-.04.11,2.67c.23,5.4,1.78,10.13,4.83,14.73,4.69,7.1,12.02,11.76,20.58,13.1,2.06.32,7.61.32,9.51.02v.02ZM114.93,29.5c0-.21-9.65-10.05-9.95-10.14-.19-.05-19.23,19.14-19.23,19.39,0,.05,2.23,2.41,4.97,5.2l4.96,5.1,9.63-9.67c5.29-5.33,9.62-9.77,9.62-9.88Z"/>
</svg>