<?xml version="1.0" encoding="utf-8"?>
<!DOCTYPE svg PUBLIC "-//W3C//DTD SVG 1.0//EN" "http://www.w3.org/TR/2001/REC-SVG-20010904/DTD/svg10.dtd">
<svg version="1.0" xmlns="http://www.w3.org/2000/svg" width="639px" height="327px" viewBox="0 0 639 327" preserveAspectRatio="xMidYMid meet">
 <g fill="none">
  <path d="M0 163.30 l0 -163.30 319.50 0 319.50 0 0 163.30 0 163.30 -319.50 0 -319.50 0 0 -163.30z m350.07 152.25 c0.40 -0.22 4.13 -0.67 8.30 -0.89 4.13 -0.27 9.01 -0.71 10.83 -0.93 1.82 -0.22 7.23 -0.84 11.98 -1.38 19.79 -2.09 44.20 -6.26 63.46 -10.78 1.60 -0.40 3.55 -0.71 4.35 -0.71 0.84 0 2.04 -0.31 2.66 -0.67 0.67 -0.31 5.90 -1.91 11.67 -3.51 9.50 -2.66 30.84 -9.41 33.01 -10.47 0.49 -0.22 3.90 -1.60 7.54 -3.06 7.19 -2.84 14.64 -6.03 20.63 -8.83 2.09 -0.93 4.39 -1.86 5.10 -2.04 0.75 -0.18 1.73 -0.71 2.22 -1.15 0.49 -0.44 3.46 -2.13 6.61 -3.73 3.15 -1.64 5.99 -3.15 6.30 -3.42 0.62 -0.49 7.90 -4.88 9.05 -5.41 0.84 -0.40 2.17 -1.29 5.81 -3.86 1.55 -1.11 3.15 -2.17 3.55 -2.44 0.40 -0.22 2.71 -1.91 5.10 -3.73 30.17 -22.63 46.77 -47.22 50.19 -74.33 0.84 -6.52 0.44 -12.78 -1.20 -20.86 -10.43 -50.19 -71.22 -93.81 -162.63 -116.66 -55.29 -13.85 -116.44 -18.77 -176.39 -14.29 -85.47 6.43 -161.30 30.57 -209.72 66.65 -28.67 21.39 -45.97 47.44 -49.03 73.80 -1.82 16.02 3.64 34.92 15 51.92 34.04 50.76 119.24 87.64 227.55 98.47 8.16 0.84 25.43 2.09 32.84 2.40 8.34 0.35 54.49 0.27 55.20 -0.09z"/>
  <path d="M128.29 260.04 c-16.64 -1.64 -29.47 -7.10 -38.34 -16.37 -6.92 -7.28 -10.78 -15 -13 -26.23 -0.71 -3.42 -0.80 -9.54 -0.93 -63.77 l-0.18 -60.04 20.63 0 20.63 0 0.13 55.38 0.13 55.34 1.02 3.55 c1.91 6.83 4.93 11.49 9.85 15.09 4.79 3.51 11.40 5.06 16.73 3.95 9.63 -2 15.98 -8.25 18.86 -18.59 l1.02 -3.55 0.22 -55.47 0.22 -55.47 20.55 -0.13 20.55 -0.09 -0.18 59.77 c-0.13 59.06 -0.13 59.86 -1.07 63.59 -2.88 11.58 -6.57 18.46 -13.89 25.74 -9.05 9.10 -20.19 14.24 -35.94 16.64 -5.59 0.84 -21.17 1.20 -27.02 0.67z"/>
  <path d="M215.35 196.71 c0.13 -59.06 0.13 -59.37 1.11 -63.46 3.90 -16.64 12.47 -27.91 26.80 -35.19 12.51 -6.39 22.94 -8.34 44.95 -8.43 31.91 -0.04 49.92 11.76 56.58 37.14 2.22 8.52 2.26 9.76 2.26 68.03 0 29.91 0 55.91 0 57.82 l-0.04 3.42 -20.63 0 -20.59 0 -0.13 -55.34 c-0.13 -55.29 -0.13 -55.38 -1.11 -58.75 -1.51 -5.28 -3.86 -9.54 -6.97 -12.60 -9.23 -9.01 -23.12 -8.56 -32.66 1.07 -3.86 3.86 -5.64 7.14 -7.14 12.96 -0.93 3.46 -0.98 4.97 -1.15 22.50 l-0.22 18.73 13.58 0 13.58 0 0 13.98 0 13.98 -13.40 0.09 -13.45 0.13 -0.13 21.66 -0.09 21.61 -20.63 0 -20.68 0 0.18 -59.33z"/>
  <path d="M400.71 191.26 l0 -64.79 -23.61 -0.09 -23.65 -0.13 -0.13 -16.29 -0.09 -16.33 0.98 -0.22 c0.58 -0.13 31.46 -0.18 68.69 -0.13 l67.67 0.13 0 16.42 0 16.42 -24.05 0.13 -24.10 0.09 0 64.79 0 64.79 -20.86 0 -20.86 0 0 -64.79z"/>
  <path d="M497 214.24 c-0.04 -23.03 -0.13 -58.80 -0.27 -79.56 -0.13 -20.72 -0.09 -38.47 0.04 -39.36 l0.31 -1.69 20.37 0 20.37 0 0 81.21 0 81.21 -20.41 0 -20.41 0 0 -41.80z"/>
 </g>
 <g>
  <path d="M293.54 316.97 c-21.57 -0.89 -48.81 -3.73 -70.25 -7.23 -90.97 -15.04 -160.37 -49.17 -190.15 -93.63 -11.76 -17.57 -17.04 -36.79 -14.95 -54.58 3.02 -26.36 20.32 -52.41 48.99 -73.80 48.41 -36.08 124.25 -60.22 209.72 -66.65 27.29 -2.04 60.48 -2.13 86.75 -0.22 52.23 3.82 101.93 14.38 143.07 30.44 37.01 14.47 67.58 33.68 86.44 54.36 15.80 17.31 24.50 35.15 26.76 54.76 2.31 20.19 -5.37 42.47 -21.48 62.52 -4.53 5.59 -12.96 14.07 -19.44 19.48 -4.61 3.82 -12.74 10.12 -14.51 11.18 -0.40 0.27 -2 1.33 -3.55 2.44 -3.64 2.57 -4.97 3.46 -5.81 3.86 -1.15 0.53 -8.43 4.93 -9.05 5.41 -0.31 0.27 -3.15 1.77 -6.30 3.42 -3.15 1.60 -6.12 3.28 -6.61 3.73 -0.49 0.44 -1.46 0.98 -2.22 1.15 -0.71 0.18 -3.02 1.11 -5.10 2.04 -5.99 2.80 -13.45 5.99 -20.63 8.83 -3.64 1.46 -7.06 2.84 -7.54 3.06 -2.17 1.07 -23.52 7.81 -33.01 10.47 -5.77 1.60 -11.01 3.19 -11.67 3.51 -0.62 0.35 -1.82 0.67 -2.66 0.67 -0.80 0 -2.75 0.31 -4.35 0.71 -19.26 4.53 -43.67 8.70 -63.46 10.78 -4.75 0.53 -10.16 1.15 -11.98 1.38 -1.82 0.22 -6.70 0.67 -10.83 0.93 -4.17 0.22 -7.90 0.67 -8.30 0.89 -0.71 0.35 -49.52 0.44 -57.87 0.09z m-139.56 -58.93 c15.66 -2.35 26.89 -7.54 35.94 -16.64 7.32 -7.28 11.01 -14.16 13.89 -25.74 0.93 -3.73 0.93 -4.53 1.07 -62.26 l0.18 -58.44 -19.21 0.09 -19.21 0.13 -0.22 55.47 -0.22 55.47 -1.02 3.55 c-2.93 10.56 -9.27 16.64 -19.35 18.68 -2.93 0.62 -4.13 0.62 -7.45 0.22 -10.96 -1.42 -18.10 -7.90 -21.30 -19.35 l-1.02 -3.55 -0.13 -55.34 -0.13 -55.38 -19.30 0 -19.30 0 0.18 58.71 c0.13 52.94 0.22 59.02 0.93 62.44 2.22 11.23 6.08 18.95 13 26.23 8.88 9.27 21.70 14.73 38.34 16.37 5.64 0.53 18.64 0.18 24.36 -0.67z m101.26 -24.94 l0.13 -21.66 13.45 -0.13 13.40 -0.09 0 -12.65 0 -12.65 -13.58 0 -13.58 0 0.22 -20.06 c0.18 -18.90 0.22 -20.32 1.15 -23.83 1.51 -5.86 3.28 -9.10 7.14 -12.96 3.59 -3.64 7.01 -5.64 11.76 -6.83 3.33 -0.84 10.34 -0.84 13.49 0 8.34 2.22 14.24 8.56 17.04 18.37 0.98 3.37 0.98 3.46 1.11 58.75 l0.13 55.34 19.26 0 19.30 0 0 -3.19 c0 -1.77 0.04 -27.20 0.04 -56.49 0 -57.02 -0.04 -58.44 -2.26 -66.92 -5.77 -21.97 -19.66 -33.46 -44.11 -36.48 -9.27 -1.15 -27.51 -0.58 -35.77 1.11 -14.60 2.97 -26.80 9.63 -34.88 18.99 -5.32 6.21 -8.65 13.18 -10.92 22.85 -0.98 4.04 -0.98 4.44 -1.11 62.13 l-0.18 58 19.35 0 19.30 0 0.09 -21.61z m185.84 -43.18 l0 -64.79 24.10 -0.09 24.05 -0.13 0 -15.09 0 -15.09 -66.34 -0.13 c-36.48 -0.04 -66.78 0 -67.36 0.13 l-0.98 0.22 0.09 15 0.13 14.95 23.65 0.13 23.61 0.09 0 64.79 0 64.79 19.52 0 19.52 0 0 -64.79z m95.41 -15.09 l0 -79.88 -19.04 0 -19.04 0 -0.27 1.64 c-0.18 0.93 -0.18 18.06 -0.04 38.07 0.13 20.01 0.22 55.20 0.22 78.23 l0 41.80 19.08 0 19.08 0 0 -79.88z"/>
 </g>
</svg>